HIERARCHY
ROOT hip
{
  OFFSET 0 0 0
  CHANNELS 6 Xposition Yposition Zposition Zrotation Yrotation Xrotation
  JOINT abdomen
  {
    OFFSET 0 20.6881 -0.73152
    CHANNELS 3 Zrotation Xrotation Yrotation
    JOINT chest
    {
      OFFSET 0 11.7043 -0.48768
      CHANNELS 3 Zrotation Xrotation Yrotation
      JOINT neck
      {
        OFFSET 0 22.1894 -2.19456
        CHANNELS 3 Zrotation Xrotation Yrotation
        JOINT head
        {
          OFFSET -0.24384 7.07133 1.2192
          CHANNELS 3 Zrotation Xrotation Yrotation
          JOINT leftEye
          {
            OFFSET 4.14528 8.04674 8.04672
            CHANNELS 3 Zrotation Xrotation Yrotation
            End Site
            {
              OFFSET 1 0 0
            }
          }
          JOINT rightEye
          {
            OFFSET -3.6576 8.04674 8.04672
            CHANNELS 3 Zrotation Xrotation Yrotation
            End Site
            {
              OFFSET 1 0 0
            }
          }
        }
      }
      JOINT rCollar
      {
        OFFSET -2.68224 19.2634 -4.8768
        CHANNELS 3 Zrotation Xrotation Yrotation
        JOINT rShldr
        {
          OFFSET -8.77824 -1.95073 1.46304
          CHANNELS 3 Zrotation Xrotation Yrotation
          JOINT rForeArm
          {
            OFFSET -28.1742 -1.7115 0.48768
            CHANNELS 3 Zrotation Xrotation Yrotation
            JOINT rHand
            {
              OFFSET -22.5879 0.773209 7.07136
              CHANNELS 3 Zrotation Xrotation Yrotation
              JOINT rThumb1
              {
                OFFSET -1.2192 -0.487915 3.41376
                CHANNELS 3 Zrotation Xrotation Yrotation
                JOINT rThumb2
                {
                  OFFSET -3.37035 -0.52449 3.41376
                  CHANNELS 3 Zrotation Xrotation Yrotation
                  End Site
                  {
                    OFFSET -1.78271 -1.18214 1.43049
                  }
                }
              }
              JOINT rIndex1
              {
                OFFSET -7.75947 0.938293 5.60832
                CHANNELS 3 Zrotation Xrotation Yrotation
                JOINT rIndex2
                {
                  OFFSET -2.54057 -0.884171 1.56538
                  CHANNELS 3 Zrotation Xrotation Yrotation
                  End Site
                  {
                    OFFSET -1.62519 -0.234802 1.16502
                  }
                }
              }
              JOINT rMid1
              {
                OFFSET -8.24714 1.18213 3.41376
                CHANNELS 3 Zrotation Xrotation Yrotation
                JOINT rMid2
                {
                  OFFSET -3.10165 -0.590103 1.0647
                  CHANNELS 3 Zrotation Xrotation Yrotation
                  End Site
                  {
                    OFFSET -2.48547 -0.328903 0.83742
                  }
                }
              }
              JOINT rRing1
              {
                OFFSET -8.82822 0.546677 1.51678
                CHANNELS 3 Zrotation Xrotation Yrotation
                JOINT rRing2
                {
                  OFFSET -2.60934 -0.819778 -0.0198488
                  CHANNELS 3 Zrotation Xrotation Yrotation
                  End Site
                  {
                    OFFSET -2.33842 -0.294052 0.168128
                  }
                }
              }
              JOINT rPinky1
              {
                OFFSET -8.27202 -0.0477905 -0.4584
                CHANNELS 3 Zrotation Xrotation Yrotation
                JOINT rPinky2
                {
                  OFFSET -1.82734 -0.647385 -0.700984
                  CHANNELS 3 Zrotation Xrotation Yrotation
                  End Site
                  {
                    OFFSET -1.69225 -0.51767 -0.607171
                  }
                }
              }
            }
          }
        }
      }
      JOINT lCollar
      {
        OFFSET 2.68224 19.2634 -4.8768
        CHANNELS 3 Zrotation Xrotation Yrotation
        JOINT lShldr
        {
          OFFSET 8.77824 -1.95073 1.46304
          CHANNELS 3 Zrotation Xrotation Yrotation
          JOINT lForeArm
          {
            OFFSET 28.1742 -1.7115 0.48768
            CHANNELS 3 Zrotation Xrotation Yrotation
            JOINT lHand
            {
              OFFSET 22.5879 0.773209 7.07136
              CHANNELS 3 Zrotation Xrotation Yrotation
              JOINT lThumb1
              {
                OFFSET 1.2192 -0.487915 3.41376
                CHANNELS 3 Zrotation Xrotation Yrotation
                JOINT lThumb2
                {
                  OFFSET 3.37035 -0.52449 3.41376
                  CHANNELS 3 Zrotation Xrotation Yrotation
                  End Site
                  {
                    OFFSET 1.78271 -1.18214 1.43049
                  }
                }
              }
              JOINT lIndex1
              {
                OFFSET 7.75947 0.938293 5.60832
                CHANNELS 3 Zrotation Xrotation Yrotation
                JOINT lIndex2
                {
                  OFFSET 2.54057 -0.884171 1.56538
                  CHANNELS 3 Zrotation Xrotation Yrotation
                  End Site
                  {
                    OFFSET 1.62519 -0.234802 1.16502
                  }
                }
              }
              JOINT lMid1
              {
                OFFSET 8.24714 1.18213 3.41376
                CHANNELS 3 Zrotation Xrotation Yrotation
                JOINT lMid2
                {
                  OFFSET 3.10165 -0.590103 1.0647
                  CHANNELS 3 Zrotation Xrotation Yrotation
                  End Site
                  {
                    OFFSET 2.48547 -0.328903 0.83742
                  }
                }
              }
              JOINT lRing1
              {
                OFFSET 8.82822 0.546677 1.51678
                CHANNELS 3 Zrotation Xrotation Yrotation
                JOINT lRing2
                {
                  OFFSET 2.60934 -0.819778 -0.0198488
                  CHANNELS 3 Zrotation Xrotation Yrotation
                  End Site
                  {
                    OFFSET 2.33842 -0.294052 0.168128
                  }
                }
              }
              JOINT lPinky1
              {
                OFFSET 8.27202 -0.0477905 -0.4584
                CHANNELS 3 Zrotation Xrotation Yrotation
                JOINT lPinky2
                {
                  OFFSET 1.82734 -0.647385 -0.700984
                  CHANNELS 3 Zrotation Xrotation Yrotation
                  End Site
                  {
                    OFFSET 1.69225 -0.51767 -0.607171
                  }
                }
              }
            }
          }
        }
      }
    }
  }
  JOINT rButtock
  {
    OFFSET -8.77824 4.35084 1.2192
    CHANNELS 3 Zrotation Xrotation Yrotation
    JOINT rThigh
    {
      OFFSET 0 -1.70687 -2.19456
      CHANNELS 3 Zrotation Xrotation Yrotation
      JOINT rShin
      {
        OFFSET 0 -36.8199 0.73152
        CHANNELS 3 Zrotation Xrotation Yrotation
        JOINT rFoot
        {
          OFFSET 0.73152 -45.1104 -5.12064
          CHANNELS 3 Zrotation Xrotation Yrotation
          End Site
          {
            OFFSET -1.1221 -3.69964 12.103
          }
        }
      }
    }
  }
  JOINT lButtock
  {
    OFFSET 8.77824 4.35084 1.2192
    CHANNELS 3 Zrotation Xrotation Yrotation
    JOINT lThigh
    {
      OFFSET 0 -1.70687 -2.19456
      CHANNELS 3 Zrotation Xrotation Yrotation
      JOINT lShin
      {
        OFFSET 0 -36.8199 0.73152
        CHANNELS 3 Zrotation Xrotation Yrotation
        JOINT lFoot
        {
          OFFSET -0.73152 -45.1104 -5.12064
          CHANNELS 3 Zrotation Xrotation Yrotation
          End Site
          {
            OFFSET 1.1221 -3.69964 12.103
          }
        }
      }
    }
  }
}
MOTION
Frames:	5
Frame Time:	0.00833333
33.447900000000004 79.9068 27.8743 -179.888795 -50.10426 -169.653083 0.731438 -6.354576 -173.420201 -0.357701 -4.46362 162.024535 8.182312 26.209649 171.000268 12.890541 27.56885 -149.543564 -0.003198 0.0 -0.000582 0.002406 0.0 0.000559 -13.743046 42.431668 15.568897 -122.65499 -32.930919 125.282455 86.390825 -36.118104 -84.830869 175.740757 19.525119 152.059937 83.254398 -50.257938 33.615501 -159.137028 -28.074491 127.365162 9.087148 -15.965618 -4.198245 -15.24848 32.318188 12.670705 -167.375834 -28.008439 145.268873 -163.851225 -6.231801 143.123489 -70.381077 -72.127912 -87.281394 -149.931503 -26.429365 179.919434 -136.281477 -10.956275 -133.617033 -5.471932 -17.503098 -8.760815 155.574572 -3.976735 -161.936171 -71.808686 69.889939 116.855173 76.537647 24.677173 -133.252328 163.924043 -72.861379 -177.198289 7.758264 7.439226 -1.681952 -15.554613 -18.488997 5.810314 0.326526 0.530477 -0.184428 3.261163 19.084373 -4.816907 -23.903628 -61.333868 -1.398874 -179.575462 -49.499388 -141.0736 77.74328 72.903024 -95.870116 49.289326 -81.366006 66.176465 79.554355 -51.373756 77.988389 127.511012 -28.381669 126.404145 -179.980427 75.749549 -0.013392 152.993074 54.078619 134.856945 42.287498 -10.874897 -179.407884 90.761018 31.416859 3.378078 -0.0 0.00131 0.000175 12.482689 -37.028694 134.222225 40.655316 -20.548102 89.856292 25.24188 15.47815 160.600326
33.9812 79.764 27.711999999999996 -179.541008 -51.79455 -169.42897 0.268203 -1.814426 8.409851 0.628178 -0.325599 -19.790463 12.959017 10.784775 64.914814 -18.735272 13.439568 -36.763518 -0.002644 -0.0 0.002286 -0.002546 -0.0 0.000209 3.230829 -26.298121 -5.157274 78.119106 -2.399794 -23.786847 141.842968 -7.091014 25.798381 169.967137 1.264288 150.798075 -115.533301 32.701766 68.305194 -135.39277 -15.0165 72.088492 -108.427651 34.160183 91.742286 30.149777 -39.126609 -3.567482 -164.181858 -17.81761 144.604093 86.508083 -77.976366 57.82012 -74.839962 72.961725 92.827687 -60.490234 -82.101611 -77.478914 -17.349159 -30.441158 -16.588938 -39.868802 -49.89827 -40.781006 5.824387 24.937365 -6.989596 -53.382408 7.072897 -55.866018 14.22733 -32.380013 -58.686793 16.274979 -62.233889 19.099608 -178.046338 -19.289998 -88.934373 33.392113 -29.06339 1.844685 108.427729 34.160774 -91.742716 172.944853 -26.169291 -115.433139 125.644691 49.839714 -115.273348 -3.114658 0.862313 -0.363372 72.351386 72.976076 -90.217421 -5.10322 27.974781 0.706782 150.578212 31.034591 146.361802 -73.111843 84.202657 35.33153 -0.006719 -0.000226 -0.00504 -13.178632 -17.213152 -77.790766 -48.375704 9.65114 -62.34455 25.685469 0.208612 121.596436 -179.999265 75.749869 -0.000758 -165.944892 37.980312 -0.0 11.529156 33.465158 41.736181 -57.526638 23.462535 -21.627194
34.5364 79.6367 27.442899999999998 -178.842995 -53.283703 -169.723919 0.108733 -2.124864 17.97654 1.159239 -0.488199 -29.155078 -5.765202 17.010714 -81.204279 17.665531 -3.708061 108.698323 6.1e-05 -0.0 -0.000424 6.1e-05 -0.0 -0.000424 -143.298408 38.836904 147.736191 -119.846721 35.868067 62.38127 167.234324 28.214882 -73.424123 -22.692186 67.067882 13.981976 -3.562019 3.477524 0.652335 -103.427607 7.795896 94.597038 -14.05631 19.017112 9.431486 -176.905545 -30.909287 107.79365 -36.037012 51.722891 29.832364 7.214602 -11.600449 -1.07927 -114.671478 66.731733 135.092689 -42.750776 -79.433996 -59.742916 -46.800436 -48.625764 -45.558667 16.578389 43.790912 7.912908 6.04293 25.599013 -7.234959 66.715262 20.990797 -110.371754 -6.172051 25.259373 100.600664 139.558671 33.181944 -124.763199 93.743181 37.963609 -53.548888 124.789042 -16.516021 -75.480631 1.327992 2.123215 -0.764775 -122.715176 -61.277432 -65.211036 22.003968 41.041464 -17.006371 3.10406 17.383337 -3.363991 145.118288 0.226318 179.200051 -11.800582 26.401398 5.989237 0.530909 -1.363634 0.491852 -1.424012 -2.966648 0.922244 0.000359 0.00065 9e-05 -13.319013 -18.344656 -180.0 -11.685531 -39.006198 -135.396601 -165.299264 -55.939623 103.4363 -0.001723 -0.000464 0.0 13.73328 -38.916285 125.259636 36.356511 -23.364322 -11.395603 -160.977037 -17.536211 87.907946
35.188199999999995 79.55600000000001 26.967999999999996 -177.88793 -53.81999 -170.408035 1.107748 -6.991283 -180.0 -0.692497 -4.569073 169.130835 15.008535 16.967673 105.118158 -12.200129 25.467734 -79.008325 0.003795 -0.0 -4e-06 0.003795 -0.0 -4e-06 -8.808644 32.933328 10.28549 -90.444067 -10.761507 138.633016 106.694665 -27.759263 -115.17667 -170.466898 56.642691 149.448542 1.589579 -1.576105 -0.223191 10.09423 -15.548925 -9.105718 -20.921118 25.662737 14.774003 7.291988 1.699215 -0.835012 14.344718 -43.499568 -2.874907 -170.3518 -25.966918 144.241615 -145.100389 -1.520588 -178.649102 -7.058655 -61.377179 -28.165362 -1.205957 -3.047086 -1.11614 -85.164887 -53.921387 -84.749977 150.119758 21.701312 -155.220193 52.091571 2.470993 5.679665 -12.491953 -11.692345 94.95421 134.988884 37.171124 -119.932736 166.630677 -4.30509 -89.771776 77.343855 3.302923 -27.080827 0.329088 0.529406 -0.186692 21.477044 34.94635 -15.916716 36.03621 51.722425 -29.834091 176.371574 -42.270155 -142.779376 145.108997 3.68183 -179.715666 157.609945 45.519372 -175.51768 -0.549441 1.455739 -0.509695 -1.369881 -2.957604 0.920735 -179.9992 75.74947 -0.000547 159.968482 57.310066 -49.797409 -46.244094 15.487493 -70.206574 58.384327 -35.205212 147.812747 -179.954838 75.750042 -0.037159 -166.544152 34.755068 75.131963 33.121118 3.0838 -91.684816 -166.200529 -31.557315 -21.742274
35.8051 79.4152 26.6084 -177.095072 -54.722508 -170.774983 -0.432989 -3.194868 48.557435 2.177881 -1.573618 -59.026965 1.389015 25.271376 -150.011795 21.049586 19.103565 170.44252 -0.000792 0.0 -0.000447 -0.000789 -0.0 0.001498 -0.048601 0.292397 0.065297 -85.016896 -6.362326 170.873936 -6.033506 28.553959 -124.147531 140.049029 -50.305147 128.03414 -67.034632 37.761197 34.644742 23.714478 -24.322236 17.227923 -46.208182 39.653077 36.318259 -1.750766 12.357573 0.138177 -39.287828 53.366462 32.877647 -7.189385 26.201479 6.148781 0.00554 1.770662 0.557986 -156.21215 -51.339639 178.404834 3.672585 10.448743 3.337784 -79.989333 -54.564576 -79.393428 85.537815 68.182067 -88.68877 32.568082 -16.621744 -47.522035 140.757649 -44.897279 95.664129 20.180822 -72.356751 26.808018 7.757923 7.439462 -1.681321 111.466848 -3.325625 -100.657352 46.206636 39.654043 -36.317975 89.34659 49.528166 -66.22612 103.306618 58.655752 -94.182818 -7.481872 -12.273234 0.995479 0.015051 -1.323307 0.414859 -8.091577 22.985096 -3.342354 124.852984 -29.03869 122.621189 137.77791 -11.00288 134.964394 -0.001983 0.000109 -0.002975 -11.363895 -17.835791 -180.0 -1.68019 -48.790777 42.541778 12.657517 69.928204 96.973223 179.966467 75.751378 0.027591 -165.372516 32.229 153.923432 22.107812 -42.538578 55.866021 -23.543488 27.899545 158.315776
